<svg xmlns="http://www.w3.org/2000/svg" xmlns:xlink="http://www.w3.org/1999/xlink" width="259" height="196.5" viewBox="0 0 259 196.5">
  <defs>
    <linearGradient id="linear-gradient" x1="0.269" y1="0.351" x2="0.835" y2="0.865" gradientUnits="objectBoundingBox">
      <stop offset="0" stop-color="#7fd8da"/>
      <stop offset="1" stop-color="#ede682"/>
    </linearGradient>
    <linearGradient id="linear-gradient-2" x1="0.268" y1="0.353" x2="0.835" y2="0.865" xlink:href="#linear-gradient"/>
    <filter id="패스_4" x="0" y="0" width="259" height="196.5" filterUnits="userSpaceOnUse">
      <feOffset dx="3" dy="3" input="SourceAlpha"/>
      <feGaussianBlur stdDeviation="1.5" result="blur"/>
      <feFlood flood-opacity="0.161"/>
      <feComposite operator="in" in2="blur"/>
      <feComposite in="SourceGraphic"/>
    </filter>
  </defs>
  <g id="그룹_36" data-name="그룹 36" transform="translate(-1125.5 -788.5)">
    <path id="패스_4-2" data-name="패스 4" d="M125,0c69.036,0,125,41.973,125,93.75S194.036,187.5,125,187.5,0,145.527,0,93.75,55.964,0,125,0Z" transform="translate(1127 790)" fill="url(#linear-gradient)"/>
    <g id="그룹_16" data-name="그룹 16" transform="translate(1127 790)">
      <g id="그룹_18" data-name="그룹 18">
        <g transform="matrix(1, 0, 0, 1, -1.5, -1.5)" filter="url(#패스_4)">
          <path id="패스_4-3" data-name="패스 4" d="M125,0c69.036,0,125,41.973,125,93.75,0,22.709-10.765,43.532-28.963,59.978V187.5l-39.555-10.094A158.739,158.739,0,0,1,125,187.5C55.964,187.5,0,145.527,0,93.75S55.964,0,125,0Z" transform="translate(1.5 1.5)" fill="url(#linear-gradient-2)"/>
        </g>
        <text id="공비서" transform="translate(123.375 111.5)" fill="#fff" font-size="61" font-family="GyeonggiBatangB, GyeonggiBatang"><tspan x="-83.57" y="0">공비서</tspan></text>
        <text id="공비서-2" data-name="공비서" transform="translate(123.375 111.5)" fill="#fff" font-size="61" font-family="GyeonggiBatangB, GyeonggiBatang"><tspan x="-83.57" y="0">공비서</tspan></text>
      </g>
    </g>
  </g>
</svg>
